<svg width="60" height="60" viewBox="0 0 60 60" fill="none" xmlns="http://www.w3.org/2000/svg">
<path d="M47.5182 26.6701C37.9953 21.0086 22.2876 20.4881 13.1968 23.2502C11.7369 23.6934 10.1932 22.8684 9.75089 21.407C9.30854 19.9449 10.1318 18.4005 11.5926 17.9562C22.0282 14.7847 39.3757 15.3975 50.3386 21.9124C51.652 22.6925 52.0827 24.3902 51.3042 25.7029C50.5252 27.0172 48.828 27.4505 47.5182 26.6701ZM47.2063 35.0558C46.5385 36.1413 45.121 36.4813 44.0384 35.8153C36.0991 30.9297 23.9928 29.5144 14.6001 32.3686C13.382 32.7371 12.0955 32.0496 11.7256 30.8324C11.3585 29.613 12.0456 28.3274 13.2614 27.9566C23.9914 24.6971 37.33 26.2759 46.4485 31.8859C47.5312 32.5533 47.872 33.9732 47.2063 35.0558ZM43.5914 43.1092C43.0608 43.9805 41.927 44.2538 41.0599 43.7227C34.1223 39.478 25.3903 38.5191 15.1069 40.8708C14.1158 41.0983 13.1283 40.4764 12.9022 39.4846C12.6752 38.4926 13.2938 37.5041 14.2871 37.2778C25.5406 34.7022 35.1939 35.8107 42.9807 40.5742C43.8489 41.1049 44.1223 42.2405 43.5914 43.1092ZM30.0429 0.450993C13.7272 0.450993 0.50013 13.692 0.50013 30.0259C0.50013 46.3612 13.7272 59.6019 30.0429 59.6019C46.3593 59.6019 59.5856 46.3612 59.5856 30.0259C59.5856 13.692 46.3593 0.450993 30.0429 0.450993Z" fill="#1ED760"/>
</svg>
